<svg xmlns="http://www.w3.org/2000/svg" viewBox="0 0 600 600" width="600" height="600"><ellipse cx="300" cy="300" rx="240" ry="92" transform="rotate(0.00 300 300)" fill="none" stroke="#B56F48" stroke-width="0.8" opacity="0.315"></ellipse><ellipse cx="300" cy="300" rx="234" ry="102" transform="rotate(4.29 300 300)" fill="none" stroke="#B56F48" stroke-width="0.8" opacity="0.895"></ellipse><ellipse cx="300" cy="300" rx="228" ry="112" transform="rotate(8.57 300 300)" fill="none" stroke="#B56F48" stroke-width="0.8" opacity="0.464"></ellipse><ellipse cx="300" cy="300" rx="222" ry="122" transform="rotate(12.86 300 300)" fill="none" stroke="#B56F48" stroke-width="0.8" opacity="0.857"></ellipse><ellipse cx="300" cy="300" rx="216" ry="132" transform="rotate(17.14 300 300)" fill="none" stroke="#B56F48" stroke-width="0.8" opacity="0.604"></ellipse><ellipse cx="300" cy="300" rx="240" ry="142" transform="rotate(21.43 300 300)" fill="none" stroke="#B56F48" stroke-width="0.8" opacity="0.782"></ellipse><ellipse cx="300" cy="300" rx="234" ry="152" transform="rotate(25.71 300 300)" fill="none" stroke="#B56F48" stroke-width="0.8" opacity="0.724"></ellipse><ellipse cx="300" cy="300" rx="228" ry="92" transform="rotate(30.00 300 300)" fill="none" stroke="#B56F48" stroke-width="0.8" opacity="0.677"></ellipse><ellipse cx="300" cy="300" rx="222" ry="102" transform="rotate(34.29 300 300)" fill="none" stroke="#B56F48" stroke-width="0.8" opacity="0.818"></ellipse><ellipse cx="300" cy="300" rx="216" ry="112" transform="rotate(38.57 300 300)" fill="none" stroke="#B56F48" stroke-width="0.8" opacity="0.547"></ellipse><ellipse cx="300" cy="300" rx="240" ry="122" transform="rotate(42.86 300 300)" fill="none" stroke="#B56F48" stroke-width="0.8" opacity="0.877"></ellipse><ellipse cx="300" cy="300" rx="234" ry="132" transform="rotate(47.14 300 300)" fill="none" stroke="#B56F48" stroke-width="0.8" opacity="0.402"></ellipse><ellipse cx="300" cy="300" rx="228" ry="142" transform="rotate(51.43 300 300)" fill="none" stroke="#B56F48" stroke-width="0.8" opacity="0.900"></ellipse><ellipse cx="300" cy="300" rx="222" ry="152" transform="rotate(55.71 300 300)" fill="none" stroke="#B56F48" stroke-width="0.8" opacity="0.379"></ellipse><ellipse cx="300" cy="300" rx="216" ry="92" transform="rotate(60.00 300 300)" fill="none" stroke="#B56F48" stroke-width="0.8" opacity="0.884"></ellipse><ellipse cx="300" cy="300" rx="240" ry="102" transform="rotate(64.29 300 300)" fill="none" stroke="#B56F48" stroke-width="0.8" opacity="0.525"></ellipse><ellipse cx="300" cy="300" rx="234" ry="112" transform="rotate(68.57 300 300)" fill="none" stroke="#B56F48" stroke-width="0.8" opacity="0.829"></ellipse><ellipse cx="300" cy="300" rx="228" ry="122" transform="rotate(72.86 300 300)" fill="none" stroke="#B56F48" stroke-width="0.8" opacity="0.658"></ellipse><ellipse cx="300" cy="300" rx="222" ry="132" transform="rotate(77.14 300 300)" fill="none" stroke="#B56F48" stroke-width="0.8" opacity="0.741"></ellipse><ellipse cx="300" cy="300" rx="216" ry="142" transform="rotate(81.43 300 300)" fill="none" stroke="#B56F48" stroke-width="0.8" opacity="0.767"></ellipse><ellipse cx="300" cy="300" rx="240" ry="152" transform="rotate(85.71 300 300)" fill="none" stroke="#B56F48" stroke-width="0.8" opacity="0.625"></ellipse><ellipse cx="300" cy="300" rx="234" ry="92" transform="rotate(90.00 300 300)" fill="none" stroke="#B56F48" stroke-width="0.8" opacity="0.847"></ellipse><ellipse cx="300" cy="300" rx="228" ry="102" transform="rotate(94.29 300 300)" fill="none" stroke="#B56F48" stroke-width="0.8" opacity="0.487"></ellipse><ellipse cx="300" cy="300" rx="222" ry="112" transform="rotate(98.57 300 300)" fill="none" stroke="#B56F48" stroke-width="0.8" opacity="0.892"></ellipse><ellipse cx="300" cy="300" rx="216" ry="122" transform="rotate(102.86 300 300)" fill="none" stroke="#B56F48" stroke-width="0.8" opacity="0.339"></ellipse><ellipse cx="300" cy="300" rx="240" ry="132" transform="rotate(107.14 300 300)" fill="none" stroke="#B56F48" stroke-width="0.8" opacity="0.898"></ellipse><ellipse cx="300" cy="300" rx="234" ry="142" transform="rotate(111.43 300 300)" fill="none" stroke="#B56F48" stroke-width="0.8" opacity="0.441"></ellipse><ellipse cx="300" cy="300" rx="228" ry="152" transform="rotate(115.71 300 300)" fill="none" stroke="#B56F48" stroke-width="0.8" opacity="0.865"></ellipse><ellipse cx="300" cy="300" rx="222" ry="92" transform="rotate(120.00 300 300)" fill="none" stroke="#B56F48" stroke-width="0.8" opacity="0.583"></ellipse><ellipse cx="300" cy="300" rx="216" ry="102" transform="rotate(124.29 300 300)" fill="none" stroke="#B56F48" stroke-width="0.8" opacity="0.796"></ellipse><ellipse cx="300" cy="300" rx="240" ry="112" transform="rotate(128.57 300 300)" fill="none" stroke="#B56F48" stroke-width="0.8" opacity="0.707"></ellipse><ellipse cx="300" cy="300" rx="234" ry="122" transform="rotate(132.86 300 300)" fill="none" stroke="#B56F48" stroke-width="0.8" opacity="0.695"></ellipse><ellipse cx="300" cy="300" rx="228" ry="132" transform="rotate(137.14 300 300)" fill="none" stroke="#B56F48" stroke-width="0.8" opacity="0.805"></ellipse><ellipse cx="300" cy="300" rx="222" ry="142" transform="rotate(141.43 300 300)" fill="none" stroke="#B56F48" stroke-width="0.8" opacity="0.569"></ellipse><ellipse cx="300" cy="300" rx="216" ry="152" transform="rotate(145.71 300 300)" fill="none" stroke="#B56F48" stroke-width="0.8" opacity="0.870"></ellipse><ellipse cx="300" cy="300" rx="240" ry="92" transform="rotate(150.00 300 300)" fill="none" stroke="#B56F48" stroke-width="0.8" opacity="0.426"></ellipse><ellipse cx="300" cy="300" rx="234" ry="102" transform="rotate(154.29 300 300)" fill="none" stroke="#B56F48" stroke-width="0.8" opacity="0.899"></ellipse><ellipse cx="300" cy="300" rx="228" ry="112" transform="rotate(158.57 300 300)" fill="none" stroke="#B56F48" stroke-width="0.8" opacity="0.355"></ellipse><ellipse cx="300" cy="300" rx="222" ry="122" transform="rotate(162.86 300 300)" fill="none" stroke="#B56F48" stroke-width="0.8" opacity="0.889"></ellipse><ellipse cx="300" cy="300" rx="216" ry="132" transform="rotate(167.14 300 300)" fill="none" stroke="#B56F48" stroke-width="0.8" opacity="0.503"></ellipse><ellipse cx="300" cy="300" rx="240" ry="142" transform="rotate(171.43 300 300)" fill="none" stroke="#B56F48" stroke-width="0.8" opacity="0.840"></ellipse><ellipse cx="300" cy="300" rx="234" ry="152" transform="rotate(175.71 300 300)" fill="none" stroke="#B56F48" stroke-width="0.8" opacity="0.638"></ellipse></svg>