<svg xmlns="http://www.w3.org/2000/svg" viewBox="0 0 600 600" width="600" height="600"><ellipse cx="300" cy="300" rx="240" ry="92" transform="rotate(0.00 300 300)" fill="none" stroke="#BFC5CD" stroke-width="0.8" opacity="0.245"></ellipse><ellipse cx="300" cy="300" rx="234" ry="102" transform="rotate(4.29 300 300)" fill="none" stroke="#BFC5CD" stroke-width="0.8" opacity="0.696"></ellipse><ellipse cx="300" cy="300" rx="228" ry="112" transform="rotate(8.57 300 300)" fill="none" stroke="#BFC5CD" stroke-width="0.8" opacity="0.361"></ellipse><ellipse cx="300" cy="300" rx="222" ry="122" transform="rotate(12.86 300 300)" fill="none" stroke="#BFC5CD" stroke-width="0.8" opacity="0.666"></ellipse><ellipse cx="300" cy="300" rx="216" ry="132" transform="rotate(17.14 300 300)" fill="none" stroke="#BFC5CD" stroke-width="0.8" opacity="0.470"></ellipse><ellipse cx="300" cy="300" rx="240" ry="142" transform="rotate(21.43 300 300)" fill="none" stroke="#BFC5CD" stroke-width="0.8" opacity="0.608"></ellipse><ellipse cx="300" cy="300" rx="234" ry="152" transform="rotate(25.71 300 300)" fill="none" stroke="#BFC5CD" stroke-width="0.8" opacity="0.563"></ellipse><ellipse cx="300" cy="300" rx="228" ry="92" transform="rotate(30.00 300 300)" fill="none" stroke="#BFC5CD" stroke-width="0.8" opacity="0.526"></ellipse><ellipse cx="300" cy="300" rx="222" ry="102" transform="rotate(34.29 300 300)" fill="none" stroke="#BFC5CD" stroke-width="0.8" opacity="0.636"></ellipse><ellipse cx="300" cy="300" rx="216" ry="112" transform="rotate(38.57 300 300)" fill="none" stroke="#BFC5CD" stroke-width="0.8" opacity="0.426"></ellipse><ellipse cx="300" cy="300" rx="240" ry="122" transform="rotate(42.86 300 300)" fill="none" stroke="#BFC5CD" stroke-width="0.8" opacity="0.682"></ellipse><ellipse cx="300" cy="300" rx="234" ry="132" transform="rotate(47.14 300 300)" fill="none" stroke="#BFC5CD" stroke-width="0.8" opacity="0.313"></ellipse><ellipse cx="300" cy="300" rx="228" ry="142" transform="rotate(51.43 300 300)" fill="none" stroke="#BFC5CD" stroke-width="0.8" opacity="0.700"></ellipse><ellipse cx="300" cy="300" rx="222" ry="152" transform="rotate(55.71 300 300)" fill="none" stroke="#BFC5CD" stroke-width="0.8" opacity="0.294"></ellipse><ellipse cx="300" cy="300" rx="216" ry="92" transform="rotate(60.00 300 300)" fill="none" stroke="#BFC5CD" stroke-width="0.8" opacity="0.687"></ellipse><ellipse cx="300" cy="300" rx="240" ry="102" transform="rotate(64.29 300 300)" fill="none" stroke="#BFC5CD" stroke-width="0.8" opacity="0.408"></ellipse><ellipse cx="300" cy="300" rx="234" ry="112" transform="rotate(68.57 300 300)" fill="none" stroke="#BFC5CD" stroke-width="0.8" opacity="0.645"></ellipse><ellipse cx="300" cy="300" rx="228" ry="122" transform="rotate(72.86 300 300)" fill="none" stroke="#BFC5CD" stroke-width="0.8" opacity="0.511"></ellipse><ellipse cx="300" cy="300" rx="222" ry="132" transform="rotate(77.14 300 300)" fill="none" stroke="#BFC5CD" stroke-width="0.8" opacity="0.576"></ellipse><ellipse cx="300" cy="300" rx="216" ry="142" transform="rotate(81.43 300 300)" fill="none" stroke="#BFC5CD" stroke-width="0.8" opacity="0.597"></ellipse><ellipse cx="300" cy="300" rx="240" ry="152" transform="rotate(85.71 300 300)" fill="none" stroke="#BFC5CD" stroke-width="0.8" opacity="0.486"></ellipse><ellipse cx="300" cy="300" rx="234" ry="92" transform="rotate(90.00 300 300)" fill="none" stroke="#BFC5CD" stroke-width="0.8" opacity="0.659"></ellipse><ellipse cx="300" cy="300" rx="228" ry="102" transform="rotate(94.29 300 300)" fill="none" stroke="#BFC5CD" stroke-width="0.8" opacity="0.379"></ellipse><ellipse cx="300" cy="300" rx="222" ry="112" transform="rotate(98.57 300 300)" fill="none" stroke="#BFC5CD" stroke-width="0.8" opacity="0.693"></ellipse><ellipse cx="300" cy="300" rx="216" ry="122" transform="rotate(102.86 300 300)" fill="none" stroke="#BFC5CD" stroke-width="0.8" opacity="0.264"></ellipse><ellipse cx="300" cy="300" rx="240" ry="132" transform="rotate(107.14 300 300)" fill="none" stroke="#BFC5CD" stroke-width="0.8" opacity="0.698"></ellipse><ellipse cx="300" cy="300" rx="234" ry="142" transform="rotate(111.43 300 300)" fill="none" stroke="#BFC5CD" stroke-width="0.8" opacity="0.343"></ellipse><ellipse cx="300" cy="300" rx="228" ry="152" transform="rotate(115.71 300 300)" fill="none" stroke="#BFC5CD" stroke-width="0.8" opacity="0.673"></ellipse><ellipse cx="300" cy="300" rx="222" ry="92" transform="rotate(120.00 300 300)" fill="none" stroke="#BFC5CD" stroke-width="0.8" opacity="0.454"></ellipse><ellipse cx="300" cy="300" rx="216" ry="102" transform="rotate(124.29 300 300)" fill="none" stroke="#BFC5CD" stroke-width="0.8" opacity="0.619"></ellipse><ellipse cx="300" cy="300" rx="240" ry="112" transform="rotate(128.57 300 300)" fill="none" stroke="#BFC5CD" stroke-width="0.8" opacity="0.550"></ellipse><ellipse cx="300" cy="300" rx="234" ry="122" transform="rotate(132.86 300 300)" fill="none" stroke="#BFC5CD" stroke-width="0.8" opacity="0.541"></ellipse><ellipse cx="300" cy="300" rx="228" ry="132" transform="rotate(137.14 300 300)" fill="none" stroke="#BFC5CD" stroke-width="0.8" opacity="0.626"></ellipse><ellipse cx="300" cy="300" rx="222" ry="142" transform="rotate(141.43 300 300)" fill="none" stroke="#BFC5CD" stroke-width="0.8" opacity="0.442"></ellipse><ellipse cx="300" cy="300" rx="216" ry="152" transform="rotate(145.71 300 300)" fill="none" stroke="#BFC5CD" stroke-width="0.8" opacity="0.677"></ellipse><ellipse cx="300" cy="300" rx="240" ry="92" transform="rotate(150.00 300 300)" fill="none" stroke="#BFC5CD" stroke-width="0.8" opacity="0.331"></ellipse><ellipse cx="300" cy="300" rx="234" ry="102" transform="rotate(154.29 300 300)" fill="none" stroke="#BFC5CD" stroke-width="0.8" opacity="0.699"></ellipse><ellipse cx="300" cy="300" rx="228" ry="112" transform="rotate(158.57 300 300)" fill="none" stroke="#BFC5CD" stroke-width="0.8" opacity="0.276"></ellipse><ellipse cx="300" cy="300" rx="222" ry="122" transform="rotate(162.86 300 300)" fill="none" stroke="#BFC5CD" stroke-width="0.8" opacity="0.691"></ellipse><ellipse cx="300" cy="300" rx="216" ry="132" transform="rotate(167.14 300 300)" fill="none" stroke="#BFC5CD" stroke-width="0.8" opacity="0.391"></ellipse><ellipse cx="300" cy="300" rx="240" ry="142" transform="rotate(171.43 300 300)" fill="none" stroke="#BFC5CD" stroke-width="0.8" opacity="0.654"></ellipse><ellipse cx="300" cy="300" rx="234" ry="152" transform="rotate(175.71 300 300)" fill="none" stroke="#BFC5CD" stroke-width="0.8" opacity="0.496"></ellipse></svg>